<svg width="100" height="100" viewBox="0 0 100 100" fill="none" xmlns="http://www.w3.org/2000/svg">
<path d="M77 12C76.7348 12 76.4804 12.1054 76.2929 12.2929C76.1054 12.4804 76 12.7348 76 13C76 13.2652 76.1054 13.5196 76.2929 13.7071C76.4804 13.8946 76.7348 14 77 14C77.2652 14 77.5196 13.8946 77.7071 13.7071C77.8946 13.5196 78 13.2652 78 13C78 12.7348 77.8946 12.4804 77.7071 12.2929C77.5196 12.1054 77.2652 12 77 12Z" fill="#BFC3FD"/>
<path d="M50 13C40.187 13 30.7759 16.8982 23.837 23.837C16.8982 30.7759 13 40.187 13 50C13 59.813 16.8982 69.2241 23.837 76.1629C30.7759 83.1018 40.187 87 50 87C59.813 87 69.2241 83.1018 76.1629 76.1629C83.1018 69.2241 87 59.813 87 50C87 40.187 83.1018 30.7759 76.1629 23.837C69.2241 16.8982 59.813 13 50 13Z" fill="#F9DE9E"/>
<path d="M83 11C81.9391 11 80.9217 11.4214 80.1716 12.1716C79.4214 12.9217 79 13.9391 79 15C79 16.0609 79.4214 17.0783 80.1716 17.8284C80.9217 18.5786 81.9391 19 83 19C84.0609 19 85.0783 18.5786 85.8284 17.8284C86.5786 17.0783 87 16.0609 87 15C87 13.9391 86.5786 12.9217 85.8284 12.1716C85.0783 11.4214 84.0609 11 83 11Z" fill="#BFC3FD"/>
<path d="M87 22C86.4696 22 85.9609 22.2107 85.5858 22.5858C85.2107 22.9609 85 23.4696 85 24C85 24.5304 85.2107 25.0391 85.5858 25.4142C85.9609 25.7893 86.4696 26 87 26C87.5304 26 88.0391 25.7893 88.4142 25.4142C88.7893 25.0391 89 24.5304 89 24C89 23.4696 88.7893 22.9609 88.4142 22.5858C88.0391 22.2107 87.5304 22 87 22Z" fill="#EDA851"/>
<path d="M81 74C80.4696 74 79.9609 74.2107 79.5858 74.5858C79.2107 74.9609 79 75.4696 79 76C79 76.5304 79.2107 77.0391 79.5858 77.4142C79.9609 77.7893 80.4696 78 81 78C81.5304 78 82.0391 77.7893 82.4142 77.4142C82.7893 77.0391 83 76.5304 83 76C83 75.4696 82.7893 74.9609 82.4142 74.5858C82.0391 74.2107 81.5304 74 81 74ZM15 59C13.9391 59 12.9217 59.4214 12.1716 60.1716C11.4214 60.9217 11 61.9391 11 63C11 64.0609 11.4214 65.0783 12.1716 65.8284C12.9217 66.5786 13.9391 67 15 67C16.0609 67 17.0783 66.5786 17.8284 65.8284C18.5786 65.0783 19 64.0609 19 63C19 61.9391 18.5786 60.9217 17.8284 60.1716C17.0783 59.4214 16.0609 59 15 59Z" fill="#BFC3FD"/>
<path d="M25 85C24.4696 85 23.9609 85.2107 23.5858 85.5858C23.2107 85.9609 23 86.4696 23 87C23 87.5304 23.2107 88.0391 23.5858 88.4142C23.9609 88.7893 24.4696 89 25 89C25.5304 89 26.0391 88.7893 26.4142 88.4142C26.7893 88.0391 27 87.5304 27 87C27 86.4696 26.7893 85.9609 26.4142 85.5858C26.0391 85.2107 25.5304 85 25 85Z" fill="#EDA851"/>
<path d="M18.5 49C17.837 49 17.2011 49.2634 16.7322 49.7322C16.2634 50.2011 16 50.837 16 51.5C16 52.163 16.2634 52.7989 16.7322 53.2678C17.2011 53.7366 17.837 54 18.5 54C19.163 54 19.7989 53.7366 20.2678 53.2678C20.7366 52.7989 21 52.163 21 51.5C21 50.837 20.7366 50.2011 20.2678 49.7322C19.7989 49.2634 19.163 49 18.5 49ZM79.5 32C79.1022 32 78.7206 32.158 78.4393 32.4393C78.158 32.7206 78 33.1022 78 33.5C78 33.8978 78.158 34.2794 78.4393 34.5607C78.7206 34.842 79.1022 35 79.5 35C79.8978 35 80.2794 34.842 80.5607 34.5607C80.842 34.2794 81 33.8978 81 33.5C81 33.1022 80.842 32.7206 80.5607 32.4393C80.2794 32.158 79.8978 32 79.5 32Z" fill="#EDA851"/>
<path d="M29.847 66.3C27.009 66.3 24.7 63.991 24.7 61.153V37.848C24.7 35.009 27.009 32.701 29.847 32.701H71.152C73.991 32.701 76.299 35.01 76.299 37.848V61.153C76.299 63.992 73.99 66.3 71.152 66.3H29.847Z" fill="#BFC3FD"/>
<path d="M71.153 33.4C73.605 33.4 75.6 35.395 75.6 37.847V61.153C75.6 63.605 73.605 65.6 71.153 65.6H29.847C27.395 65.6 25.4 63.605 25.4 61.153V37.847C25.4 35.395 27.395 33.4 29.847 33.4H71.153ZM71.153 32H29.847C26.618 32 24 34.618 24 37.847V61.153C24 64.382 26.618 67 29.847 67H71.152C74.382 67 77 64.382 77 61.153V37.847C77 34.618 74.382 32 71.153 32Z" fill="#252D36"/>
<path d="M25.333 38.625H75.583V44.625H25.333V38.625Z" fill="#EDA851"/>
<path d="M29.5 47.5H54.5V51.5H29.5V47.5Z" fill="#FEFDEF"/>
<path d="M54.5 52H29.5C29.224 52 29 51.776 29 51.5V47.5C29 47.224 29.224 47 29.5 47H54.5C54.776 47 55 47.224 55 47.5V51.5C55 51.776 54.776 52 54.5 52ZM30 51H54V48H30V51Z" fill="#252D36"/>
<path d="M58.5 47.5H66.5V51.5H58.5V47.5Z" fill="#FEFDEF"/>
<path d="M66.5 52H58.5C58.224 52 58 51.776 58 51.5V47.5C58 47.224 58.224 47 58.5 47H66.5C66.776 47 67 47.224 67 47.5V51.5C67 51.776 66.776 52 66.5 52ZM59 51H66V48H59V51Z" fill="#252D36"/>
<path d="M36.333 61.5H31.666C30.469 61.5 29.499 60.53 29.499 59.333V56.666C29.499 55.469 30.469 54.499 31.666 54.499H36.333C37.53 54.499 38.5 55.469 38.5 56.666V59.333C38.5 60.53 37.53 61.5 36.333 61.5Z" fill="#CECCBE"/>
<path d="M36.333 62H31.666C30.196 62 29 60.804 29 59.333V56.667C29 55.196 30.196 54 31.667 54H36.334C37.804 54 39 55.196 39 56.667V59.333C39 60.804 37.804 62 36.333 62ZM31.667 55C30.748 55 30 55.748 30 56.667V59.333C30 60.252 30.748 61 31.667 61H36.334C37.252 61 38 60.252 38 59.333V56.667C38 55.748 37.252 55 36.333 55H31.667Z" fill="#252D36"/>
<path d="M58.5 56H44.5C44.224 56 44 55.776 44 55.5C44 55.224 44.224 55 44.5 55H58.5C58.776 55 59 55.224 59 55.5C59 55.776 58.776 56 58.5 56Z" fill="#252D36"/>
<path d="M65.5 59H44.5C44.224 59 44 58.776 44 58.5C44 58.224 44.224 58 44.5 58H65.5C65.776 58 66 58.224 66 58.5C66 58.776 65.776 59 65.5 59Z" fill="#252D36"/>
<path d="M53.5 62H44.5C44.224 62 44 61.776 44 61.5C44 61.224 44.224 61 44.5 61H53.5C53.776 61 54 61.224 54 61.5C54 61.776 53.776 62 53.5 62Z" fill="#252D36"/>
<path d="M62.5 62H56.5C56.224 62 56 61.776 56 61.5C56 61.224 56.224 61 56.5 61H62.5C62.776 61 63 61.224 63 61.5C63 61.776 62.776 62 62.5 62Z" fill="#252D36"/>
<path d="M69.5 56H61.5C61.224 56 61 55.776 61 55.5C61 55.224 61.224 55 61.5 55H69.5C69.776 55 70 55.224 70 55.5C70 55.776 69.776 56 69.5 56Z" fill="#252D36"/>
<path d="M34.5 39H25.5C25.224 39 25 38.776 25 38.5C25 38.224 25.224 38 25.5 38H34.5C34.776 38 35 38.224 35 38.5C35 38.776 34.776 39 34.5 39Z" fill="#252D36"/>
<path d="M43.5 45H25.5C25.224 45 25 44.776 25 44.5C25 44.224 25.224 44 25.5 44H43.5C43.776 44 44 44.224 44 44.5C44 44.776 43.776 45 43.5 45Z" fill="#252D36"/>
<path d="M75.5 45H46.5C46.224 45 46 44.776 46 44.5C46 44.224 46.224 44 46.5 44H75.5C75.776 44 76 44.224 76 44.5C76 44.776 75.776 45 75.5 45Z" fill="#252D36"/>
<path d="M43.5 39H38.5C38.224 39 38 38.776 38 38.5C38 38.224 38.224 38 38.5 38H43.5C43.776 38 44 38.224 44 38.5C44 38.776 43.776 39 43.5 39Z" fill="#252D36"/>
<path d="M75.5 39H47.5C47.224 39 47 38.776 47 38.5C47 38.224 47.224 38 47.5 38H75.5C75.776 38 76 38.224 76 38.5C76 38.776 75.776 39 75.5 39Z" fill="#252D36"/>
</svg>
