<svg width="100" height="100" viewBox="0 0 100 100" fill="none" xmlns="http://www.w3.org/2000/svg">
<path d="M77 12C76.7348 12 76.4804 12.1054 76.2929 12.2929C76.1054 12.4804 76 12.7348 76 13C76 13.2652 76.1054 13.5196 76.2929 13.7071C76.4804 13.8946 76.7348 14 77 14C77.2652 14 77.5196 13.8946 77.7071 13.7071C77.8946 13.5196 78 13.2652 78 13C78 12.7348 77.8946 12.4804 77.7071 12.2929C77.5196 12.1054 77.2652 12 77 12Z" fill="#BFC3FD"/>
<path d="M50 13C40.187 13 30.7759 16.8982 23.837 23.837C16.8982 30.7759 13 40.187 13 50C13 59.813 16.8982 69.2241 23.837 76.1629C30.7759 83.1018 40.187 87 50 87C59.813 87 69.2241 83.1018 76.1629 76.1629C83.1018 69.2241 87 59.813 87 50C87 40.187 83.1018 30.7759 76.1629 23.837C69.2241 16.8982 59.813 13 50 13Z" fill="#F9DE9E"/>
<path d="M83 11C81.9391 11 80.9217 11.4214 80.1716 12.1716C79.4214 12.9217 79 13.9391 79 15C79 16.0609 79.4214 17.0783 80.1716 17.8284C80.9217 18.5786 81.9391 19 83 19C84.0609 19 85.0783 18.5786 85.8284 17.8284C86.5786 17.0783 87 16.0609 87 15C87 13.9391 86.5786 12.9217 85.8284 12.1716C85.0783 11.4214 84.0609 11 83 11Z" fill="#BFC3FD"/>
<path d="M87 22C86.4696 22 85.9609 22.2107 85.5858 22.5858C85.2107 22.9609 85 23.4696 85 24C85 24.5304 85.2107 25.0391 85.5858 25.4142C85.9609 25.7893 86.4696 26 87 26C87.5304 26 88.0391 25.7893 88.4142 25.4142C88.7893 25.0391 89 24.5304 89 24C89 23.4696 88.7893 22.9609 88.4142 22.5858C88.0391 22.2107 87.5304 22 87 22Z" fill="#EDA851"/>
<path d="M81 74C80.4696 74 79.9609 74.2107 79.5858 74.5858C79.2107 74.9609 79 75.4696 79 76C79 76.5304 79.2107 77.0391 79.5858 77.4142C79.9609 77.7893 80.4696 78 81 78C81.5304 78 82.0391 77.7893 82.4142 77.4142C82.7893 77.0391 83 76.5304 83 76C83 75.4696 82.7893 74.9609 82.4142 74.5858C82.0391 74.2107 81.5304 74 81 74ZM15 59C13.9391 59 12.9217 59.4214 12.1716 60.1716C11.4214 60.9217 11 61.9391 11 63C11 64.0609 11.4214 65.0783 12.1716 65.8284C12.9217 66.5786 13.9391 67 15 67C16.0609 67 17.0783 66.5786 17.8284 65.8284C18.5786 65.0783 19 64.0609 19 63C19 61.9391 18.5786 60.9217 17.8284 60.1716C17.0783 59.4214 16.0609 59 15 59Z" fill="#BFC3FD"/>
<path d="M25 85C24.4696 85 23.9609 85.2107 23.5858 85.5858C23.2107 85.9609 23 86.4696 23 87C23 87.5304 23.2107 88.0391 23.5858 88.4142C23.9609 88.7893 24.4696 89 25 89C25.5304 89 26.0391 88.7893 26.4142 88.4142C26.7893 88.0391 27 87.5304 27 87C27 86.4696 26.7893 85.9609 26.4142 85.5858C26.0391 85.2107 25.5304 85 25 85Z" fill="#EDA851"/>
<path d="M18.5 49C17.837 49 17.2011 49.2634 16.7322 49.7322C16.2634 50.2011 16 50.837 16 51.5C16 52.163 16.2634 52.7989 16.7322 53.2678C17.2011 53.7366 17.837 54 18.5 54C19.163 54 19.7989 53.7366 20.2678 53.2678C20.7366 52.7989 21 52.163 21 51.5C21 50.837 20.7366 50.2011 20.2678 49.7322C19.7989 49.2634 19.163 49 18.5 49ZM79.5 32C79.1022 32 78.7206 32.158 78.4393 32.4393C78.158 32.7206 78 33.1022 78 33.5C78 33.8978 78.158 34.2794 78.4393 34.5607C78.7206 34.842 79.1022 35 79.5 35C79.8978 35 80.2794 34.842 80.5607 34.5607C80.842 34.2794 81 33.8978 81 33.5C81 33.1022 80.842 32.7206 80.5607 32.4393C80.2794 32.158 79.8978 32 79.5 32Z" fill="#EDA851"/>
<path d="M68.1211 70.526C67.7161 68.38 66.8411 67.123 64.7791 66.5C64.6891 66.473 64.5691 66.429 64.4341 66.377C64.2781 66.309 64.0801 66.229 63.8481 66.139C62.5991 65.611 55.1751 62.872 55.1751 62.872C54.5631 62.717 54.1651 62.281 53.9351 61.79C53.5551 60.979 53.7021 58.876 53.7021 58.876C53.7021 58.876 50.5981 59.938 48.6611 60.3C46.7611 60.485 42.6781 58.028 42.6781 58.028C42.6781 58.028 42.5821 61.065 42.4531 61.74C42.3511 62.27 41.7811 62.718 41.1691 62.873L34.0451 65.456C33.2571 65.662 32.5011 65.956 31.8361 66.367C30.0431 67.474 29.1351 69.136 28.6731 70.527C28.6731 70.527 28.2041 73.843 28.2231 73.962C28.1791 74.426 28.1331 74.937 28.0861 75.474C35.8501 80.731 42.0861 82.204 52.7851 81.736C57.6461 81.523 64.8841 79.123 68.6761 77.209C68.4751 72.984 68.1211 70.526 68.1211 70.526Z" fill="#CE9065"/>
<path d="M68.218 70.645C67.813 68.499 66.938 67.242 64.876 66.619C64.786 66.592 64.666 66.548 64.531 66.496C64.375 66.428 64.177 66.348 63.945 66.258C63.269 65.972 56.618 63.651 54.481 62.855C51.564 64.91 50.252 65.702 48.306 65.702C46.231 65.702 45.039 64.446 42.148 62.702L38.911 63.897C38.903 63.893 38.895 63.888 38.887 63.884L38.573 63.967L34.142 65.574C33.354 65.78 32.598 66.074 31.933 66.485C30.14 67.592 29.232 69.254 28.77 70.645C28.77 70.645 28.301 73.961 28.32 74.08C28.276 74.544 28.23 79.524 28.183 80.061C35.947 85.318 42.183 86.791 52.882 86.323C57.743 86.11 64.981 83.71 68.773 81.796C68.572 77.571 68.218 70.645 68.218 70.645Z" fill="#BFC3FD"/>
<path d="M55.201 73.272C54.467 72.35 53.955 71.281 53.21 70.369C53.03 70.149 53.017 69.879 53.21 69.662C53.63 69.189 54.213 68.95 54.785 68.713C55.415 68.453 56.025 68.169 56.662 67.934C56.2599 66.266 55.4669 64.755 54.4749 63.361C54.344 63.176 54.37 62.997 54.47 62.862C51.56 64.912 50.249 65.702 48.304 65.702C46.321 65.702 45.128 64.548 42.503 62.924C42.258 64.445 40.878 66.499 41.901 67.992C42.305 68.582 43.135 68.786 43.405 69.513C43.786 70.543 43.216 72.027 43.188 73.076C43.133 75.206 43.719 76.803 44.514 78.724C44.549 78.808 44.555 78.884 44.546 78.953C45.183 80.218 45.901 81.523 46.381 82.836C46.801 83.986 47.053 85.183 47.339 86.368C47.851 86.386 48.378 86.394 48.912 86.398C49.389 84.109 50.6969 81.889 51.606 79.748C52.602 77.405 53.537 75.208 55.201 73.272Z" fill="#FDFCEF"/>
<path d="M35.5 83.875C35.293 83.875 35.125 83.707 35.125 83.5V80.5C35.125 80.293 35.293 80.125 35.5 80.125C35.707 80.125 35.875 80.293 35.875 80.5V83.5C35.875 83.707 35.707 83.875 35.5 83.875ZM61.5 84.875C61.293 84.875 61.125 84.707 61.125 84.5V80.5C61.125 80.293 61.293 80.125 61.5 80.125C61.707 80.125 61.875 80.293 61.875 80.5V84.5C61.875 84.707 61.707 84.875 61.5 84.875ZM53.832 61.931C53.832 61.931 56.196 62.936 57.916 68.461L53.832 69.968L56.465 72.983L48.685 86.541C48.686 86.541 52.438 72.706 53.832 61.931ZM42.546 61.931C42.546 61.931 40.183 62.936 38.462 68.461L42.546 69.968L39.914 72.983L47.561 86.541C47.561 86.541 43.941 72.706 42.546 61.931Z" fill="#8F96FE"/>
<path d="M60.418 44C60.301 43.992 60.182 43.991 60.058 43.991C59.093 43.944 58.818 44.329 58.862 43.732C58.94 42.672 58.792 38.371 58.792 38.154C58.792 33.698 54.139 30.063 48 29.862V29.849C48.286 29.85 48.248 29.855 48.208 29.856C48.169 29.855 48.131 29.85 49 29.849V29.862C42.278 30.064 37.625 33.698 37.625 38.154C37.625 38.371 37.477 42.671 37.555 43.732C37.599 44.329 37.324 43.944 36.359 43.991C36.235 43.991 36.116 43.992 35.999 44C34.941 44.071 34.085 44.744 33.902 45.578C34.032 45.657 34.513 49.309 35.293 50.748C35.729 51.551 36.409 51.663 37.108 52.182C37.495 52.469 37.57 52.794 37.676 53.223C38.068 54.813 39.157 56.165 40.35 57.319C40.939 57.889 44.849 62.057 48.208 61.846C51.583 61.719 55.477 57.889 56.066 57.319C57.259 56.165 58.348 54.813 58.74 53.223C58.846 52.793 58.92 52.469 59.308 52.182C60.007 51.663 60.687 51.552 61.123 50.748C61.903 49.309 62.385 45.657 62.514 45.578C62.332 44.744 61.476 44.07 60.418 44Z" fill="#DB9E71"/>
<path d="M48.269 51.059C48.952 51.059 49.614 50.761 50.04 50.262C50.083 50.212 50.077 50.136 50.027 50.093C49.977 50.05 49.902 50.055 49.858 50.105C49.511 50.502 48.931 50.73 48.269 50.73C47.606 50.73 47.027 50.502 46.68 50.105C46.656 50.078 46.623 50.064 46.589 50.064C46.561 50.064 46.533 50.074 46.511 50.093C46.461 50.136 46.455 50.212 46.498 50.262C46.924 50.761 47.586 51.059 48.269 51.059ZM46.091 41.833L46.524 41.001C44.692 40.572 42.583 40.64 40.842 41.18L41.388 41.991C42.819 41.519 44.579 41.459 46.091 41.833ZM55.262 41.833L55.695 41.001C53.863 40.572 51.754 40.64 50.013 41.18L50.559 41.991C51.991 41.519 53.751 41.459 55.262 41.833ZM43.454 43.007C43.014 43.007 42.628 43.298 42.405 43.738C42.461 43.721 42.518 43.709 42.579 43.709C42.94 43.709 43.232 44.036 43.232 44.438C43.232 44.841 42.939 45.167 42.579 45.167C42.461 45.167 42.352 45.129 42.256 45.068C42.41 45.729 42.888 46.21 43.455 46.21C44.146 46.21 44.707 45.493 44.707 44.608C44.706 43.725 44.145 43.007 43.454 43.007ZM53.031 43.007C52.655 43.007 52.319 43.22 52.09 43.555C52.162 43.525 52.239 43.506 52.32 43.506C52.681 43.506 52.973 43.833 52.973 44.235C52.973 44.638 52.68 44.964 52.32 44.964C52.096 44.964 51.899 44.838 51.781 44.646C51.797 45.513 52.35 46.209 53.031 46.209C53.722 46.209 54.283 45.492 54.283 44.607C54.282 43.725 53.722 43.007 53.031 43.007ZM53.562 52.915C53.613 52.873 53.621 52.798 53.58 52.747C53.539 52.696 53.463 52.687 53.411 52.729C52.283 53.628 50.409 54.144 48.27 54.144C46.131 54.144 44.257 53.628 43.128 52.728C43.106 52.71 43.08 52.702 43.053 52.702C43.018 52.702 42.983 52.717 42.959 52.747C42.918 52.798 42.925 52.874 42.976 52.916C44.25 53.957 46.229 54.579 48.269 54.579C50.309 54.578 52.287 53.957 53.562 52.915Z" fill="#512C2B"/>
<path d="M49.324 86.962C40.417 86.962 34.668 85.181 27.804 80.534C27.654 80.432 27.571 80.258 27.586 80.077C27.595 79.969 27.6 79.602 27.607 79.07C27.64 76.888 27.707 72.349 28.189 70.573C28.843 68.156 29.801 67.211 31.571 66.118C32.233 65.71 33.022 65.384 33.916 65.15L40.996 62.581C41.499 62.45 41.902 62.124 41.959 61.824C41.988 61.675 42.044 61.213 42.112 59.785C41.08 59.056 40.24 58.399 39.999 58.163C38.439 56.637 37.546 55.245 37.189 53.782C37.08 53.335 37.033 53.179 36.807 53.01C36.6 52.856 36.394 52.74 36.198 52.63C35.715 52.358 35.216 52.075 34.852 51.398C34.014 49.834 33.401 46.877 33.401 45.933C33.401 45.898 33.405 45.862 33.412 45.828C33.647 44.742 34.697 43.925 35.964 43.839C36.092 43.83 36.222 43.829 36.357 43.829C36.626 43.816 36.859 43.835 37.042 43.859C37.006 42.653 37.078 40.099 37.11 38.946C37.118 38.658 37.124 38.467 37.124 38.426C37.124 33.899 41.373 30.27 47.2 29.63C47.283 29.566 47.387 29.526 47.499 29.526C47.777 29.526 47.997 29.526 48.169 29.539C48.391 29.513 48.633 29.504 48.796 29.624C54.862 30.244 59.291 33.881 59.291 38.426C59.291 38.467 59.296 38.657 59.305 38.946C59.338 40.123 59.411 42.759 59.372 43.859C59.556 43.834 59.79 43.809 60.082 43.83C60.189 43.828 60.323 43.832 60.45 43.839C61.718 43.925 62.767 44.742 63.002 45.828C63.009 45.862 63.013 45.898 63.013 45.933C63.013 47.022 62.363 49.904 61.563 51.398C61.199 52.076 60.7 52.358 60.217 52.63C60.02 52.74 59.814 52.856 59.607 53.011C59.381 53.181 59.334 53.336 59.231 53.763C58.869 55.245 57.976 56.637 56.416 58.163C56.161 58.413 55.259 59.147 54.174 59.931C54.172 60.789 54.249 61.462 54.387 61.757C54.528 62.056 54.8 62.44 55.298 62.567C55.652 62.694 62.797 65.331 64.043 65.859C64.268 65.945 64.471 66.028 64.632 66.097C64.735 66.136 64.844 66.176 64.926 66.201C67.047 66.842 68.15 68.161 68.613 70.612C68.617 70.634 68.62 70.657 68.621 70.679C68.621 70.679 68.975 77.607 69.175 81.831C69.184 82.028 69.077 82.212 68.901 82.301C64.859 84.342 57.555 86.674 52.807 86.882C51.591 86.935 50.433 86.962 49.324 86.962ZM28.595 79.86C36.005 84.824 42.143 86.352 52.762 85.881C57.267 85.684 64.159 83.51 68.16 81.551C67.966 77.487 67.65 71.278 67.623 70.763C67.227 68.698 66.386 67.685 64.634 67.157C64.535 67.127 64.403 67.079 64.255 67.022C64.084 66.949 63.892 66.872 63.667 66.784C62.428 66.26 55.075 63.547 55.001 63.519C54.367 63.361 53.809 62.88 53.481 62.18C53.255 61.698 53.152 60.85 53.176 59.661C53.179 59.503 53.257 59.355 53.386 59.264C54.6 58.4 55.516 57.643 55.716 57.448C57.137 56.058 57.944 54.818 58.254 53.546C58.369 53.073 58.482 52.605 59.007 52.211C59.252 52.027 59.494 51.89 59.726 51.759C60.149 51.52 60.455 51.347 60.682 50.925C61.436 49.519 61.991 46.903 62.014 45.988C61.851 45.37 61.176 44.888 60.384 44.836C60.279 44.829 60.17 44.828 60.058 44.828C59.727 44.811 59.51 44.848 59.333 44.875C59.1 44.914 58.808 44.959 58.571 44.741C58.327 44.516 58.351 44.188 58.363 44.03C58.424 43.189 58.338 40.126 58.306 38.972C58.297 38.669 58.292 38.468 58.292 38.425C58.292 34.242 53.91 30.924 48.014 30.563C42.342 30.926 38.125 34.246 38.125 38.425C38.125 38.468 38.12 38.669 38.111 38.972C38.079 40.125 37.993 43.189 38.054 44.03C38.066 44.188 38.09 44.516 37.845 44.741C37.61 44.958 37.318 44.913 37.083 44.875C36.906 44.847 36.686 44.816 36.384 44.827C36.247 44.828 36.139 44.829 36.033 44.836C35.242 44.889 34.567 45.37 34.404 45.988C34.428 46.895 35.022 49.592 35.736 50.925C35.962 51.347 36.268 51.52 36.692 51.759C36.924 51.89 37.166 52.028 37.41 52.21C37.934 52.605 38.048 53.071 38.158 53.523C38.474 54.819 39.281 56.059 40.702 57.449C40.898 57.641 41.775 58.33 42.913 59.125C43.054 59.224 43.134 59.387 43.126 59.558C43.068 60.859 43.006 61.685 42.944 62.013C42.79 62.816 42.003 63.357 41.292 63.536L34.216 66.104C33.374 66.327 32.677 66.614 32.099 66.97C30.494 67.96 29.73 68.716 29.156 70.835C28.708 72.49 28.639 77.112 28.61 79.085C28.604 79.405 28.6 79.67 28.595 79.86Z" fill="#252D36"/>
<path d="M60.48 48.881L59.883 48.815L60.084 47.036L59.073 47.474L58.835 46.923L60.321 46.279C60.418 46.236 60.532 46.249 60.618 46.313C60.704 46.376 60.75 46.481 60.738 46.587L60.48 48.881ZM36.262 48.538L36.004 46.244C35.992 46.138 36.038 46.033 36.124 45.97C36.21 45.905 36.324 45.893 36.422 45.936L37.908 46.58L37.67 47.131L36.659 46.693L36.86 48.472L36.262 48.538Z" fill="#895D3D"/>
<path d="M37.602 52.98C37.601 52.98 37.6 52.98 37.598 52.98C37.488 52.978 37.4 52.886 37.402 52.776L37.567 44.129C37.569 44.02 37.658 43.933 37.767 43.933C37.768 43.933 37.769 43.933 37.771 43.933C37.881 43.935 37.969 44.027 37.967 44.137L37.802 52.784C37.799 52.894 37.71 52.98 37.602 52.98Z" fill="#252D36"/>
<path d="M58.981 52.98C58.872 52.98 58.783 52.893 58.781 52.784L58.617 44.137C58.615 44.027 58.703 43.935 58.813 43.933C58.814 43.933 58.816 43.933 58.817 43.933C58.926 43.933 59.015 44.02 59.017 44.129L59.181 52.776C59.183 52.886 59.095 52.978 58.985 52.98C58.983 52.98 58.982 52.98 58.981 52.98Z" fill="#252D36"/>
<path d="M63.081 36.324C60.822 36.489 59.403 33.782 57.93 31.785C54.337 26.917 48.048 25.406 42.815 28.211C41.422 28.958 40.306 29.756 39.984 30.48C37.338 31.605 35.853 35.042 35.27 38.347C34.59 42.203 37.857 48.171 38.051 44.85C38.191 42.453 39.086 39.103 39.992 37.019C40.399 36.083 40.769 35.09 41.035 34.064C41.347 36.556 44.602 38.927 46.642 38.949C46.86 38.951 46.96 38.091 46.901 36.918C47.434 37.874 48.192 38.676 49.037 39.267C50.364 40.196 51.892 40.662 53.416 40.989C52.876 40.763 52.557 40.097 52.458 39.441C52.406 39.1 52.402 38.755 52.407 38.408C53.738 39.329 55.166 40.008 56.72 40.066C56.899 40.073 57.08 40.067 57.26 40.056C58.067 41.724 58.344 43.73 58.427 45.159C58.621 48.48 61.094 42.933 60.414 39.077C60.409 39.049 60.403 39.02 60.398 38.991C61.416 38.35 62.345 37.443 63.081 36.324ZM41.372 32.291C41.377 32.245 41.382 32.198 41.387 32.152C41.404 32.158 41.42 32.164 41.438 32.169C41.413 32.209 41.394 32.25 41.372 32.291Z" fill="#5E2E2E"/>
<path d="M48.374 62.381C46.335 62.381 42.913 59.77 42.762 59.653C42.653 59.569 42.632 59.412 42.716 59.302C42.801 59.192 42.957 59.171 43.067 59.256C43.104 59.284 46.776 62.085 48.564 61.869C50.392 61.651 53.325 59.492 53.354 59.47C53.465 59.389 53.623 59.411 53.704 59.523C53.787 59.633 53.763 59.791 53.652 59.873C53.527 59.965 50.583 62.133 48.624 62.366C48.542 62.376 48.459 62.381 48.374 62.381Z" fill="#252D36"/>
<path d="M29 25H30V37H29V25Z" fill="#252D36"/>
<path d="M31.405 36.671C31.217 35.956 30.631 35.371 29.914 35.189C28.503 34.831 27.239 35.888 27.239 37.239C27.239 37.573 27.323 37.885 27.461 38.167H27.444L29.34 42.01L31.097 38.449C31.436 37.965 31.581 37.337 31.405 36.671Z" fill="#ECAD6F"/>
<path d="M29.341 42.51C29.151 42.51 28.977 42.402 28.893 42.232L26.997 38.389C26.976 38.346 26.961 38.302 26.954 38.257C26.812 37.928 26.741 37.586 26.741 37.239C26.741 36.425 27.11 35.671 27.753 35.17C28.397 34.668 29.228 34.497 30.039 34.704C30.929 34.93 31.656 35.651 31.891 36.544C32.094 37.314 31.959 38.092 31.511 38.735L29.792 42.231C29.705 42.401 29.531 42.51 29.341 42.51ZM27.95 38.063L29.341 40.88L30.65 38.228C30.965 37.765 31.048 37.281 30.922 36.798C30.78 36.261 30.326 35.809 29.791 35.673C29.279 35.541 28.771 35.644 28.366 35.959C27.968 36.269 27.74 36.735 27.74 37.239C27.74 37.477 27.798 37.716 27.911 37.946C27.929 37.984 27.942 38.022 27.95 38.063Z" fill="#252D36"/>
<path d="M48 35.5C41.79 35.5 37.93 34.214 37.531 33.285L37.5 33.213V25.173H58.5V33.238L58.469 33.285C58.07 34.214 54.21 35.5 48 35.5Z" fill="#BFC3FD"/>
<path d="M58 25.673V33.106C57.596 33.796 53.966 35 48 35C42.029 35 38.399 33.794 38 33.106V25.673H58ZM59 24.673H37V33.483H37.072C37.68 34.898 42.339 36 48 36C53.661 36 58.32 34.898 58.928 33.483H59V24.673Z" fill="#252D36"/>
<path d="M28.9821 25.304L48.1641 19.227L67.3441 25.302L48.1641 31.38L28.9821 25.304Z" fill="#99A0FF"/>
<path d="M48.163 19.751L65.6881 25.303L48.162 30.856L30.637 25.305L48.163 19.751ZM48.163 18.702L27.326 25.304L48.163 31.904L69 25.302L48.163 18.702Z" fill="#252D36"/>
</svg>
